# xmcd
# 
# Track frame offsets:
#     150
#     23849
#     45984
#     62391
#     80719
#     101191
#     119953
#     146809
#     166463
#     180799
#     204644
#     221782
#     245824
#     263030
#     280932
#     296629
#     313758
# 
# Disc length: 4462
# 
# Revision: 21
# Processed by: cddbd v1.5.2PL0 Copyright (c) Steve Scherf et al.
# Submitted via: fre:ac v1.0.27
# 
DISCID=0b116c11
DTITLE=安室 奈美恵 - BEST FICTION
DYEAR=2008
DGENRE=J-POP
TTITLE0=01-Do Me More
TTITLE1=02-Wishing On The Same Star
TTITLE2=03-shine more
TTITLE3=04-Put 'Em Up
TTITLE4=05-SO CRAZY
TTITLE5=06-ALARM
TTITLE6=07-ALL FOR YOU
TTITLE7=08-GIRL TALK
TTITLE8=09-WANT ME, WANT ME
TTITLE9=10-White Light
TTITLE10=11-CAN'T SLEEP, CAN'T EAT, I'M SICK
TTITLE11=12-Baby Don't Cry
TTITLE12=13-FUNKY TOWN
TTITLE13=14-NEW LOOK
TTITLE14=15-ROCK STEADY
TTITLE15=16-WAHT A FEELING
TTITLE16=17-Sexy Girl
EXTD=YEAR: 2008
EXTT0=
EXTT1=
EXTT2=
EXTT3=
EXTT4=
EXTT5=
EXTT6=
EXTT7=
EXTT8=
EXTT9=
EXTT10=
EXTT11=
EXTT12=
EXTT13=
EXTT14=
EXTT15=
EXTT16=
PLAYORDER=
